<?xml version="1.0" encoding="UTF-8" standalone="no"?>
<!DOCTYPE svg PUBLIC "-//W3C//DTD SVG 1.1//EN"
 "http://www.w3.org/Graphics/SVG/1.1/DTD/svg11.dtd">
<!-- Generated by graphviz version 2.40.1 (20161225.0304)
 -->
<!-- Title: Tree Pages: 1 -->
<svg width="286pt" height="224pt"
 viewBox="0.00 0.00 286.00 224.00" xmlns="http://www.w3.org/2000/svg" xmlns:xlink="http://www.w3.org/1999/xlink">
<g id="graph0" class="graph" transform="scale(1 1) rotate(0) translate(4 220)">
<title>Tree</title>
<polygon fill="#ffffff" stroke="transparent" points="-4,4 -4,-220 282,-220 282,4 -4,4"/>
<!-- 0 -->
<g id="node1" class="node">
<title>0</title>
<polygon fill="#ffffff" stroke="#000000" points="162.5,-216 56.5,-216 56.5,-163 162.5,-163 162.5,-216"/>
<text text-anchor="middle" x="109.5" y="-200.8" font-family="Times,serif" font-size="14.00" fill="#000000">X[1] &lt;= &#45;5.814</text>
<text text-anchor="middle" x="109.5" y="-185.8" font-family="Times,serif" font-size="14.00" fill="#000000">samples = 100</text>
<text text-anchor="middle" x="109.5" y="-170.8" font-family="Times,serif" font-size="14.00" fill="#000000">value = [50, 50]</text>
</g>
<!-- 1 -->
<g id="node2" class="node">
<title>1</title>
<polygon fill="#e58139" stroke="#000000" points="99,-119.5 0,-119.5 0,-81.5 99,-81.5 99,-119.5"/>
<text text-anchor="middle" x="49.5" y="-104.3" font-family="Times,serif" font-size="14.00" fill="#000000">samples = 25</text>
<text text-anchor="middle" x="49.5" y="-89.3" font-family="Times,serif" font-size="14.00" fill="#000000">value = [25, 0]</text>
</g>
<!-- 0&#45;&gt;1 -->
<g id="edge1" class="edge">
<title>0&#45;&gt;1</title>
<path fill="none" stroke="#000000" d="M91.498,-162.7971C84.0895,-151.8078 75.5123,-139.0849 68.0479,-128.0128"/>
<polygon fill="#000000" stroke="#000000" points="70.836,-125.887 62.3439,-119.5518 65.0318,-129.8 70.836,-125.887"/>
<text text-anchor="middle" x="57.5677" y="-140.3913" font-family="Times,serif" font-size="14.00" fill="#000000">True</text>
</g>
<!-- 2 -->
<g id="node3" class="node">
<title>2</title>
<polygon fill="#9ccef2" stroke="#000000" points="223.5,-127 117.5,-127 117.5,-74 223.5,-74 223.5,-127"/>
<text text-anchor="middle" x="170.5" y="-111.8" font-family="Times,serif" font-size="14.00" fill="#000000">X[1] &lt;= 5.348</text>
<text text-anchor="middle" x="170.5" y="-96.8" font-family="Times,serif" font-size="14.00" fill="#000000">samples = 75</text>
<text text-anchor="middle" x="170.5" y="-81.8" font-family="Times,serif" font-size="14.00" fill="#000000">value = [25, 50]</text>
</g>
<!-- 0&#45;&gt;2 -->
<g id="edge2" class="edge">
<title>0&#45;&gt;2</title>
<path fill="none" stroke="#000000" d="M127.802,-162.7971C133.6528,-154.2607 140.2205,-144.6782 146.418,-135.6361"/>
<polygon fill="#000000" stroke="#000000" points="149.4444,-137.4114 152.2109,-127.1841 143.6704,-133.4539 149.4444,-137.4114"/>
<text text-anchor="middle" x="156.7983" y="-148.0596" font-family="Times,serif" font-size="14.00" fill="#000000">False</text>
</g>
<!-- 3 -->
<g id="node4" class="node">
<title>3</title>
<polygon fill="#399de5" stroke="#000000" points="161,-38 62,-38 62,0 161,0 161,-38"/>
<text text-anchor="middle" x="111.5" y="-22.8" font-family="Times,serif" font-size="14.00" fill="#000000">samples = 50</text>
<text text-anchor="middle" x="111.5" y="-7.8" font-family="Times,serif" font-size="14.00" fill="#000000">value = [0, 50]</text>
</g>
<!-- 2&#45;&gt;3 -->
<g id="edge3" class="edge">
<title>2&#45;&gt;3</title>
<path fill="none" stroke="#000000" d="M151.1812,-73.8139C144.8142,-65.0188 137.726,-55.2274 131.3221,-46.3814"/>
<polygon fill="#000000" stroke="#000000" points="134.1369,-44.3009 125.4378,-38.2531 128.4667,-48.4057 134.1369,-44.3009"/>
</g>
<!-- 4 -->
<g id="node5" class="node">
<title>4</title>
<polygon fill="#e58139" stroke="#000000" points="278,-38 179,-38 179,0 278,0 278,-38"/>
<text text-anchor="middle" x="228.5" y="-22.8" font-family="Times,serif" font-size="14.00" fill="#000000">samples = 25</text>
<text text-anchor="middle" x="228.5" y="-7.8" font-family="Times,serif" font-size="14.00" fill="#000000">value = [25, 0]</text>
</g>
<!-- 2&#45;&gt;4 -->
<g id="edge4" class="edge">
<title>2&#45;&gt;4</title>
<path fill="none" stroke="#000000" d="M189.4914,-73.8139C195.6859,-65.1094 202.5749,-55.4292 208.819,-46.6553"/>
<polygon fill="#000000" stroke="#000000" points="211.8518,-48.4299 214.7984,-38.2531 206.1486,-44.3712 211.8518,-48.4299"/>
</g>
</g>
</svg>
