<?xml version="1.0" encoding="UTF-8" standalone="no"?>
<!DOCTYPE svg PUBLIC "-//W3C//DTD SVG 1.1//EN"
 "http://www.w3.org/Graphics/SVG/1.1/DTD/svg11.dtd">
<!-- Generated by graphviz version 2.40.1 (20161225.0304)
 -->
<!-- Title: Tree Pages: 1 -->
<svg width="1039pt" height="477pt"
 viewBox="0.00 0.00 1039.00 477.00" xmlns="http://www.w3.org/2000/svg" xmlns:xlink="http://www.w3.org/1999/xlink">
<g id="graph0" class="graph" transform="scale(1 1) rotate(0) translate(4 473)">
<title>Tree</title>
<polygon fill="#ffffff" stroke="transparent" points="-4,4 -4,-473 1035,-473 1035,4 -4,4"/>
<!-- 0 -->
<g id="node1" class="node">
<title>0</title>
<polygon fill="#afd7f4" stroke="#000000" points="646,-469 499,-469 499,-401 646,-401 646,-469"/>
<text text-anchor="middle" x="572.5" y="-453.8" font-family="Times,serif" font-size="14.00" fill="#000000">worst radius &lt;= 16.795</text>
<text text-anchor="middle" x="572.5" y="-438.8" font-family="Times,serif" font-size="14.00" fill="#000000">samples = 426</text>
<text text-anchor="middle" x="572.5" y="-423.8" font-family="Times,serif" font-size="14.00" fill="#000000">value = [159, 267]</text>
<text text-anchor="middle" x="572.5" y="-408.8" font-family="Times,serif" font-size="14.00" fill="#000000">class = benign</text>
</g>
<!-- 1 -->
<g id="node2" class="node">
<title>1</title>
<polygon fill="#4ca6e8" stroke="#000000" points="555,-365 366,-365 366,-297 555,-297 555,-365"/>
<text text-anchor="middle" x="460.5" y="-349.8" font-family="Times,serif" font-size="14.00" fill="#000000">worst concave points &lt;= 0.136</text>
<text text-anchor="middle" x="460.5" y="-334.8" font-family="Times,serif" font-size="14.00" fill="#000000">samples = 284</text>
<text text-anchor="middle" x="460.5" y="-319.8" font-family="Times,serif" font-size="14.00" fill="#000000">value = [25, 259]</text>
<text text-anchor="middle" x="460.5" y="-304.8" font-family="Times,serif" font-size="14.00" fill="#000000">class = benign</text>
</g>
<!-- 0&#45;&gt;1 -->
<g id="edge1" class="edge">
<title>0&#45;&gt;1</title>
<path fill="none" stroke="#000000" d="M535.827,-400.9465C525.8677,-391.6986 514.9789,-381.5876 504.6532,-371.9994"/>
<polygon fill="#000000" stroke="#000000" points="506.9649,-369.3698 497.2554,-365.13 502.2018,-374.4993 506.9649,-369.3698"/>
<text text-anchor="middle" x="498.1807" y="-386.4129" font-family="Times,serif" font-size="14.00" fill="#000000">True</text>
</g>
<!-- 14 -->
<g id="node15" class="node">
<title>14</title>
<polygon fill="#e78945" stroke="#000000" points="724.5,-365 584.5,-365 584.5,-297 724.5,-297 724.5,-365"/>
<text text-anchor="middle" x="654.5" y="-349.8" font-family="Times,serif" font-size="14.00" fill="#000000">texture error &lt;= 0.473</text>
<text text-anchor="middle" x="654.5" y="-334.8" font-family="Times,serif" font-size="14.00" fill="#000000">samples = 142</text>
<text text-anchor="middle" x="654.5" y="-319.8" font-family="Times,serif" font-size="14.00" fill="#000000">value = [134, 8]</text>
<text text-anchor="middle" x="654.5" y="-304.8" font-family="Times,serif" font-size="14.00" fill="#000000">class = malignant</text>
</g>
<!-- 0&#45;&gt;14 -->
<g id="edge14" class="edge">
<title>0&#45;&gt;14</title>
<path fill="none" stroke="#000000" d="M599.3499,-400.9465C606.3583,-392.0578 613.9955,-382.3716 621.291,-373.1188"/>
<polygon fill="#000000" stroke="#000000" points="624.1467,-375.1498 627.5898,-365.13 618.6498,-370.8157 624.1467,-375.1498"/>
<text text-anchor="middle" x="630.5263" y="-386.2569" font-family="Times,serif" font-size="14.00" fill="#000000">False</text>
</g>
<!-- 2 -->
<g id="node3" class="node">
<title>2</title>
<polygon fill="#3c9fe5" stroke="#000000" points="357.5,-261 221.5,-261 221.5,-193 357.5,-193 357.5,-261"/>
<text text-anchor="middle" x="289.5" y="-245.8" font-family="Times,serif" font-size="14.00" fill="#000000">radius error &lt;= 1.048</text>
<text text-anchor="middle" x="289.5" y="-230.8" font-family="Times,serif" font-size="14.00" fill="#000000">samples = 252</text>
<text text-anchor="middle" x="289.5" y="-215.8" font-family="Times,serif" font-size="14.00" fill="#000000">value = [4, 248]</text>
<text text-anchor="middle" x="289.5" y="-200.8" font-family="Times,serif" font-size="14.00" fill="#000000">class = benign</text>
</g>
<!-- 1&#45;&gt;2 -->
<g id="edge2" class="edge">
<title>1&#45;&gt;2</title>
<path fill="none" stroke="#000000" d="M404.5082,-296.9465C388.4168,-287.1599 370.7359,-276.4066 354.1666,-266.3294"/>
<polygon fill="#000000" stroke="#000000" points="355.9802,-263.336 345.6176,-261.13 352.3428,-269.3167 355.9802,-263.336"/>
</g>
<!-- 7 -->
<g id="node8" class="node">
<title>7</title>
<polygon fill="#f3c3a1" stroke="#000000" points="532.5,-261 388.5,-261 388.5,-193 532.5,-193 532.5,-261"/>
<text text-anchor="middle" x="460.5" y="-245.8" font-family="Times,serif" font-size="14.00" fill="#000000">worst texture &lt;= 25.62</text>
<text text-anchor="middle" x="460.5" y="-230.8" font-family="Times,serif" font-size="14.00" fill="#000000">samples = 32</text>
<text text-anchor="middle" x="460.5" y="-215.8" font-family="Times,serif" font-size="14.00" fill="#000000">value = [21, 11]</text>
<text text-anchor="middle" x="460.5" y="-200.8" font-family="Times,serif" font-size="14.00" fill="#000000">class = malignant</text>
</g>
<!-- 1&#45;&gt;7 -->
<g id="edge7" class="edge">
<title>1&#45;&gt;7</title>
<path fill="none" stroke="#000000" d="M460.5,-296.9465C460.5,-288.776 460.5,-279.9318 460.5,-271.3697"/>
<polygon fill="#000000" stroke="#000000" points="464.0001,-271.13 460.5,-261.13 457.0001,-271.13 464.0001,-271.13"/>
</g>
<!-- 3 -->
<g id="node4" class="node">
<title>3</title>
<polygon fill="#3b9ee5" stroke="#000000" points="214,-157 47,-157 47,-89 214,-89 214,-157"/>
<text text-anchor="middle" x="130.5" y="-141.8" font-family="Times,serif" font-size="14.00" fill="#000000">smoothness error &lt;= 0.003</text>
<text text-anchor="middle" x="130.5" y="-126.8" font-family="Times,serif" font-size="14.00" fill="#000000">samples = 251</text>
<text text-anchor="middle" x="130.5" y="-111.8" font-family="Times,serif" font-size="14.00" fill="#000000">value = [3, 248]</text>
<text text-anchor="middle" x="130.5" y="-96.8" font-family="Times,serif" font-size="14.00" fill="#000000">class = benign</text>
</g>
<!-- 2&#45;&gt;3 -->
<g id="edge3" class="edge">
<title>2&#45;&gt;3</title>
<path fill="none" stroke="#000000" d="M237.4375,-192.9465C222.6125,-183.2497 206.3367,-172.6039 191.0529,-162.6069"/>
<polygon fill="#000000" stroke="#000000" points="192.9642,-159.6749 182.6795,-157.13 189.1324,-165.533 192.9642,-159.6749"/>
</g>
<!-- 6 -->
<g id="node7" class="node">
<title>6</title>
<polygon fill="#e58139" stroke="#000000" points="347,-149.5 232,-149.5 232,-96.5 347,-96.5 347,-149.5"/>
<text text-anchor="middle" x="289.5" y="-134.3" font-family="Times,serif" font-size="14.00" fill="#000000">samples = 1</text>
<text text-anchor="middle" x="289.5" y="-119.3" font-family="Times,serif" font-size="14.00" fill="#000000">value = [1, 0]</text>
<text text-anchor="middle" x="289.5" y="-104.3" font-family="Times,serif" font-size="14.00" fill="#000000">class = malignant</text>
</g>
<!-- 2&#45;&gt;6 -->
<g id="edge6" class="edge">
<title>2&#45;&gt;6</title>
<path fill="none" stroke="#000000" d="M289.5,-192.9465C289.5,-182.2621 289.5,-170.4254 289.5,-159.5742"/>
<polygon fill="#000000" stroke="#000000" points="293.0001,-159.5421 289.5,-149.5422 286.0001,-159.5422 293.0001,-159.5421"/>
</g>
<!-- 4 -->
<g id="node5" class="node">
<title>4</title>
<polygon fill="#7bbeee" stroke="#000000" points="97,-53 0,-53 0,0 97,0 97,-53"/>
<text text-anchor="middle" x="48.5" y="-37.8" font-family="Times,serif" font-size="14.00" fill="#000000">samples = 4</text>
<text text-anchor="middle" x="48.5" y="-22.8" font-family="Times,serif" font-size="14.00" fill="#000000">value = [1, 3]</text>
<text text-anchor="middle" x="48.5" y="-7.8" font-family="Times,serif" font-size="14.00" fill="#000000">class = benign</text>
</g>
<!-- 3&#45;&gt;4 -->
<g id="edge4" class="edge">
<title>3&#45;&gt;4</title>
<path fill="none" stroke="#000000" d="M101.5899,-88.9777C93.8866,-79.9123 85.5581,-70.111 77.8324,-61.0192"/>
<polygon fill="#000000" stroke="#000000" points="80.3718,-58.6025 71.2293,-53.2485 75.0375,-63.1352 80.3718,-58.6025"/>
</g>
<!-- 5 -->
<g id="node6" class="node">
<title>5</title>
<polygon fill="#3b9ee5" stroke="#000000" points="221.5,-53 115.5,-53 115.5,0 221.5,0 221.5,-53"/>
<text text-anchor="middle" x="168.5" y="-37.8" font-family="Times,serif" font-size="14.00" fill="#000000">samples = 247</text>
<text text-anchor="middle" x="168.5" y="-22.8" font-family="Times,serif" font-size="14.00" fill="#000000">value = [2, 245]</text>
<text text-anchor="middle" x="168.5" y="-7.8" font-family="Times,serif" font-size="14.00" fill="#000000">class = benign</text>
</g>
<!-- 3&#45;&gt;5 -->
<g id="edge5" class="edge">
<title>3&#45;&gt;5</title>
<path fill="none" stroke="#000000" d="M143.8974,-88.9777C147.2508,-80.4617 150.86,-71.2963 154.253,-62.6798"/>
<polygon fill="#000000" stroke="#000000" points="157.5595,-63.8355 157.9669,-53.2485 151.0463,-61.2707 157.5595,-63.8355"/>
</g>
<!-- 8 -->
<g id="node9" class="node">
<title>8</title>
<polygon fill="#7bbeee" stroke="#000000" points="536,-157 365,-157 365,-89 536,-89 536,-157"/>
<text text-anchor="middle" x="450.5" y="-141.8" font-family="Times,serif" font-size="14.00" fill="#000000">worst smoothness &lt;= 0.179</text>
<text text-anchor="middle" x="450.5" y="-126.8" font-family="Times,serif" font-size="14.00" fill="#000000">samples = 12</text>
<text text-anchor="middle" x="450.5" y="-111.8" font-family="Times,serif" font-size="14.00" fill="#000000">value = [3, 9]</text>
<text text-anchor="middle" x="450.5" y="-96.8" font-family="Times,serif" font-size="14.00" fill="#000000">class = benign</text>
</g>
<!-- 7&#45;&gt;8 -->
<g id="edge8" class="edge">
<title>7&#45;&gt;8</title>
<path fill="none" stroke="#000000" d="M457.2256,-192.9465C456.4314,-184.6863 455.5709,-175.7374 454.7392,-167.0875"/>
<polygon fill="#000000" stroke="#000000" points="458.2229,-166.7491 453.7817,-157.13 451.255,-167.4191 458.2229,-166.7491"/>
</g>
<!-- 11 -->
<g id="node12" class="node">
<title>11</title>
<polygon fill="#e88f4f" stroke="#000000" points="715,-157 554,-157 554,-89 715,-89 715,-157"/>
<text text-anchor="middle" x="634.5" y="-141.8" font-family="Times,serif" font-size="14.00" fill="#000000">worst symmetry &lt;= 0.268</text>
<text text-anchor="middle" x="634.5" y="-126.8" font-family="Times,serif" font-size="14.00" fill="#000000">samples = 20</text>
<text text-anchor="middle" x="634.5" y="-111.8" font-family="Times,serif" font-size="14.00" fill="#000000">value = [18, 2]</text>
<text text-anchor="middle" x="634.5" y="-96.8" font-family="Times,serif" font-size="14.00" fill="#000000">class = malignant</text>
</g>
<!-- 7&#45;&gt;11 -->
<g id="edge11" class="edge">
<title>7&#45;&gt;11</title>
<path fill="none" stroke="#000000" d="M517.4741,-192.9465C533.8478,-183.1599 551.8389,-172.4066 568.6989,-162.3294"/>
<polygon fill="#000000" stroke="#000000" points="570.6099,-165.2648 577.3979,-157.13 567.0186,-159.2562 570.6099,-165.2648"/>
</g>
<!-- 9 -->
<g id="node10" class="node">
<title>9</title>
<polygon fill="#4fa8e8" stroke="#000000" points="375,-53 278,-53 278,0 375,0 375,-53"/>
<text text-anchor="middle" x="326.5" y="-37.8" font-family="Times,serif" font-size="14.00" fill="#000000">samples = 10</text>
<text text-anchor="middle" x="326.5" y="-22.8" font-family="Times,serif" font-size="14.00" fill="#000000">value = [1, 9]</text>
<text text-anchor="middle" x="326.5" y="-7.8" font-family="Times,serif" font-size="14.00" fill="#000000">class = benign</text>
</g>
<!-- 8&#45;&gt;9 -->
<g id="edge9" class="edge">
<title>8&#45;&gt;9</title>
<path fill="none" stroke="#000000" d="M406.7822,-88.9777C394.5451,-79.4545 381.2645,-69.1191 369.0934,-59.6473"/>
<polygon fill="#000000" stroke="#000000" points="370.9125,-56.628 360.8711,-53.2485 366.6134,-62.1523 370.9125,-56.628"/>
</g>
<!-- 10 -->
<g id="node11" class="node">
<title>10</title>
<polygon fill="#e58139" stroke="#000000" points="508,-53 393,-53 393,0 508,0 508,-53"/>
<text text-anchor="middle" x="450.5" y="-37.8" font-family="Times,serif" font-size="14.00" fill="#000000">samples = 2</text>
<text text-anchor="middle" x="450.5" y="-22.8" font-family="Times,serif" font-size="14.00" fill="#000000">value = [2, 0]</text>
<text text-anchor="middle" x="450.5" y="-7.8" font-family="Times,serif" font-size="14.00" fill="#000000">class = malignant</text>
</g>
<!-- 8&#45;&gt;10 -->
<g id="edge10" class="edge">
<title>8&#45;&gt;10</title>
<path fill="none" stroke="#000000" d="M450.5,-88.9777C450.5,-80.7364 450.5,-71.887 450.5,-63.5153"/>
<polygon fill="#000000" stroke="#000000" points="454.0001,-63.2484 450.5,-53.2485 447.0001,-63.2485 454.0001,-63.2484"/>
</g>
<!-- 12 -->
<g id="node13" class="node">
<title>12</title>
<polygon fill="#9ccef2" stroke="#000000" points="623,-53 526,-53 526,0 623,0 623,-53"/>
<text text-anchor="middle" x="574.5" y="-37.8" font-family="Times,serif" font-size="14.00" fill="#000000">samples = 3</text>
<text text-anchor="middle" x="574.5" y="-22.8" font-family="Times,serif" font-size="14.00" fill="#000000">value = [1, 2]</text>
<text text-anchor="middle" x="574.5" y="-7.8" font-family="Times,serif" font-size="14.00" fill="#000000">class = benign</text>
</g>
<!-- 11&#45;&gt;12 -->
<g id="edge12" class="edge">
<title>11&#45;&gt;12</title>
<path fill="none" stroke="#000000" d="M613.3462,-88.9777C607.8805,-80.187 601.9846,-70.7044 596.4778,-61.8477"/>
<polygon fill="#000000" stroke="#000000" points="599.3837,-59.8927 591.1312,-53.2485 593.4391,-63.5889 599.3837,-59.8927"/>
</g>
<!-- 13 -->
<g id="node14" class="node">
<title>13</title>
<polygon fill="#e58139" stroke="#000000" points="756,-53 641,-53 641,0 756,0 756,-53"/>
<text text-anchor="middle" x="698.5" y="-37.8" font-family="Times,serif" font-size="14.00" fill="#000000">samples = 17</text>
<text text-anchor="middle" x="698.5" y="-22.8" font-family="Times,serif" font-size="14.00" fill="#000000">value = [17, 0]</text>
<text text-anchor="middle" x="698.5" y="-7.8" font-family="Times,serif" font-size="14.00" fill="#000000">class = malignant</text>
</g>
<!-- 11&#45;&gt;13 -->
<g id="edge13" class="edge">
<title>11&#45;&gt;13</title>
<path fill="none" stroke="#000000" d="M657.064,-88.9777C662.8941,-80.187 669.1831,-70.7044 675.057,-61.8477"/>
<polygon fill="#000000" stroke="#000000" points="678.1498,-63.5167 680.7601,-53.2485 672.3162,-59.6478 678.1498,-63.5167"/>
</g>
<!-- 15 -->
<g id="node16" class="node">
<title>15</title>
<polygon fill="#399de5" stroke="#000000" points="703,-253.5 606,-253.5 606,-200.5 703,-200.5 703,-253.5"/>
<text text-anchor="middle" x="654.5" y="-238.3" font-family="Times,serif" font-size="14.00" fill="#000000">samples = 5</text>
<text text-anchor="middle" x="654.5" y="-223.3" font-family="Times,serif" font-size="14.00" fill="#000000">value = [0, 5]</text>
<text text-anchor="middle" x="654.5" y="-208.3" font-family="Times,serif" font-size="14.00" fill="#000000">class = benign</text>
</g>
<!-- 14&#45;&gt;15 -->
<g id="edge15" class="edge">
<title>14&#45;&gt;15</title>
<path fill="none" stroke="#000000" d="M654.5,-296.9465C654.5,-286.2621 654.5,-274.4254 654.5,-263.5742"/>
<polygon fill="#000000" stroke="#000000" points="658.0001,-263.5421 654.5,-253.5422 651.0001,-263.5422 658.0001,-263.5421"/>
</g>
<!-- 16 -->
<g id="node17" class="node">
<title>16</title>
<polygon fill="#e6843d" stroke="#000000" points="902.5,-261 742.5,-261 742.5,-193 902.5,-193 902.5,-261"/>
<text text-anchor="middle" x="822.5" y="-245.8" font-family="Times,serif" font-size="14.00" fill="#000000">worst concavity &lt;= 0.191</text>
<text text-anchor="middle" x="822.5" y="-230.8" font-family="Times,serif" font-size="14.00" fill="#000000">samples = 137</text>
<text text-anchor="middle" x="822.5" y="-215.8" font-family="Times,serif" font-size="14.00" fill="#000000">value = [134, 3]</text>
<text text-anchor="middle" x="822.5" y="-200.8" font-family="Times,serif" font-size="14.00" fill="#000000">class = malignant</text>
</g>
<!-- 14&#45;&gt;16 -->
<g id="edge16" class="edge">
<title>14&#45;&gt;16</title>
<path fill="none" stroke="#000000" d="M709.5095,-296.9465C725.1736,-287.2497 742.3707,-276.6039 758.5196,-266.6069"/>
<polygon fill="#000000" stroke="#000000" points="760.7065,-269.3695 767.3669,-261.13 757.022,-263.4177 760.7065,-269.3695"/>
</g>
<!-- 17 -->
<g id="node18" class="node">
<title>17</title>
<polygon fill="#bddef6" stroke="#000000" points="898,-157 747,-157 747,-89 898,-89 898,-157"/>
<text text-anchor="middle" x="822.5" y="-141.8" font-family="Times,serif" font-size="14.00" fill="#000000">worst texture &lt;= 30.975</text>
<text text-anchor="middle" x="822.5" y="-126.8" font-family="Times,serif" font-size="14.00" fill="#000000">samples = 5</text>
<text text-anchor="middle" x="822.5" y="-111.8" font-family="Times,serif" font-size="14.00" fill="#000000">value = [2, 3]</text>
<text text-anchor="middle" x="822.5" y="-96.8" font-family="Times,serif" font-size="14.00" fill="#000000">class = benign</text>
</g>
<!-- 16&#45;&gt;17 -->
<g id="edge17" class="edge">
<title>16&#45;&gt;17</title>
<path fill="none" stroke="#000000" d="M822.5,-192.9465C822.5,-184.776 822.5,-175.9318 822.5,-167.3697"/>
<polygon fill="#000000" stroke="#000000" points="826.0001,-167.13 822.5,-157.13 819.0001,-167.13 826.0001,-167.13"/>
</g>
<!-- 20 -->
<g id="node21" class="node">
<title>20</title>
<polygon fill="#e58139" stroke="#000000" points="1031,-149.5 916,-149.5 916,-96.5 1031,-96.5 1031,-149.5"/>
<text text-anchor="middle" x="973.5" y="-134.3" font-family="Times,serif" font-size="14.00" fill="#000000">samples = 132</text>
<text text-anchor="middle" x="973.5" y="-119.3" font-family="Times,serif" font-size="14.00" fill="#000000">value = [132, 0]</text>
<text text-anchor="middle" x="973.5" y="-104.3" font-family="Times,serif" font-size="14.00" fill="#000000">class = malignant</text>
</g>
<!-- 16&#45;&gt;20 -->
<g id="edge20" class="edge">
<title>16&#45;&gt;20</title>
<path fill="none" stroke="#000000" d="M871.943,-192.9465C889.5351,-180.8301 909.2785,-167.232 926.647,-155.2696"/>
<polygon fill="#000000" stroke="#000000" points="928.7125,-158.0969 934.9628,-149.5422 924.7419,-152.332 928.7125,-158.0969"/>
</g>
<!-- 18 -->
<g id="node19" class="node">
<title>18</title>
<polygon fill="#399de5" stroke="#000000" points="871,-53 774,-53 774,0 871,0 871,-53"/>
<text text-anchor="middle" x="822.5" y="-37.8" font-family="Times,serif" font-size="14.00" fill="#000000">samples = 3</text>
<text text-anchor="middle" x="822.5" y="-22.8" font-family="Times,serif" font-size="14.00" fill="#000000">value = [0, 3]</text>
<text text-anchor="middle" x="822.5" y="-7.8" font-family="Times,serif" font-size="14.00" fill="#000000">class = benign</text>
</g>
<!-- 17&#45;&gt;18 -->
<g id="edge18" class="edge">
<title>17&#45;&gt;18</title>
<path fill="none" stroke="#000000" d="M822.5,-88.9777C822.5,-80.7364 822.5,-71.887 822.5,-63.5153"/>
<polygon fill="#000000" stroke="#000000" points="826.0001,-63.2484 822.5,-53.2485 819.0001,-63.2485 826.0001,-63.2484"/>
</g>
<!-- 19 -->
<g id="node20" class="node">
<title>19</title>
<polygon fill="#e58139" stroke="#000000" points="1004,-53 889,-53 889,0 1004,0 1004,-53"/>
<text text-anchor="middle" x="946.5" y="-37.8" font-family="Times,serif" font-size="14.00" fill="#000000">samples = 2</text>
<text text-anchor="middle" x="946.5" y="-22.8" font-family="Times,serif" font-size="14.00" fill="#000000">value = [2, 0]</text>
<text text-anchor="middle" x="946.5" y="-7.8" font-family="Times,serif" font-size="14.00" fill="#000000">class = malignant</text>
</g>
<!-- 17&#45;&gt;19 -->
<g id="edge19" class="edge">
<title>17&#45;&gt;19</title>
<path fill="none" stroke="#000000" d="M866.2178,-88.9777C878.4549,-79.4545 891.7355,-69.1191 903.9066,-59.6473"/>
<polygon fill="#000000" stroke="#000000" points="906.3866,-62.1523 912.1289,-53.2485 902.0875,-56.628 906.3866,-62.1523"/>
</g>
</g>
</svg>
